<mxfile host="app.diagrams.net" modified="2020-05-09T06:38:20.272Z" agent="5.0 (Windows NT 10.0; WOW64) AppleWebKit/537.36 (KHTML, like Gecko) Chrome/80.0.3987.149 Safari/537.36" etag="FDjlU4AvlbRFkonmGFdV" version="13.0.9" type="github">
  <diagram id="86CyNWyPQC0UojKd5ZI3" name="Page-1">
    <mxGraphModel dx="1422" dy="712" grid="1" gridSize="10" guides="1" tooltips="1" connect="1" arrows="1" fold="1" page="1" pageScale="1" pageWidth="827" pageHeight="1169" math="0" shadow="0">
      <root>
        <mxCell id="0" />
        <mxCell id="1" parent="0" />
        <mxCell id="DtHLHoiFknx3RHCEOVzX-1" value="电网安全培训VR" style="rounded=0;whiteSpace=wrap;html=1;" vertex="1" parent="1">
          <mxGeometry x="20" y="20" width="120" height="60" as="geometry" />
        </mxCell>
        <mxCell id="DtHLHoiFknx3RHCEOVzX-8" style="edgeStyle=orthogonalEdgeStyle;rounded=0;orthogonalLoop=1;jettySize=auto;html=1;exitX=0.5;exitY=1;exitDx=0;exitDy=0;entryX=0.5;entryY=0;entryDx=0;entryDy=0;" edge="1" parent="1" source="DtHLHoiFknx3RHCEOVzX-2" target="DtHLHoiFknx3RHCEOVzX-3">
          <mxGeometry relative="1" as="geometry" />
        </mxCell>
        <mxCell id="DtHLHoiFknx3RHCEOVzX-9" style="edgeStyle=orthogonalEdgeStyle;rounded=0;orthogonalLoop=1;jettySize=auto;html=1;exitX=0.5;exitY=1;exitDx=0;exitDy=0;" edge="1" parent="1" source="DtHLHoiFknx3RHCEOVzX-2" target="DtHLHoiFknx3RHCEOVzX-4">
          <mxGeometry relative="1" as="geometry" />
        </mxCell>
        <mxCell id="DtHLHoiFknx3RHCEOVzX-10" style="edgeStyle=orthogonalEdgeStyle;rounded=0;orthogonalLoop=1;jettySize=auto;html=1;exitX=0.5;exitY=1;exitDx=0;exitDy=0;entryX=0.5;entryY=0;entryDx=0;entryDy=0;" edge="1" parent="1" source="DtHLHoiFknx3RHCEOVzX-2" target="DtHLHoiFknx3RHCEOVzX-5">
          <mxGeometry relative="1" as="geometry" />
        </mxCell>
        <mxCell id="DtHLHoiFknx3RHCEOVzX-11" style="edgeStyle=orthogonalEdgeStyle;rounded=0;orthogonalLoop=1;jettySize=auto;html=1;exitX=0.5;exitY=1;exitDx=0;exitDy=0;" edge="1" parent="1" source="DtHLHoiFknx3RHCEOVzX-2" target="DtHLHoiFknx3RHCEOVzX-6">
          <mxGeometry relative="1" as="geometry" />
        </mxCell>
        <mxCell id="DtHLHoiFknx3RHCEOVzX-2" value="电网安全培训VR" style="rounded=0;whiteSpace=wrap;html=1;" vertex="1" parent="1">
          <mxGeometry x="310" y="150" width="120" height="60" as="geometry" />
        </mxCell>
        <mxCell id="DtHLHoiFknx3RHCEOVzX-3" value="站内实景演练" style="rounded=0;whiteSpace=wrap;html=1;" vertex="1" parent="1">
          <mxGeometry x="50" y="310" width="120" height="60" as="geometry" />
        </mxCell>
        <mxCell id="DtHLHoiFknx3RHCEOVzX-4" value="现场实景演练" style="rounded=0;whiteSpace=wrap;html=1;" vertex="1" parent="1">
          <mxGeometry x="230" y="310" width="120" height="60" as="geometry" />
        </mxCell>
        <mxCell id="DtHLHoiFknx3RHCEOVzX-5" value="人员行为学习" style="rounded=0;whiteSpace=wrap;html=1;" vertex="1" parent="1">
          <mxGeometry x="400" y="310" width="120" height="60" as="geometry" />
        </mxCell>
        <mxCell id="DtHLHoiFknx3RHCEOVzX-6" value="安全事故模拟" style="rounded=0;whiteSpace=wrap;html=1;" vertex="1" parent="1">
          <mxGeometry x="590" y="310" width="120" height="60" as="geometry" />
        </mxCell>
        <mxCell id="DtHLHoiFknx3RHCEOVzX-17" style="edgeStyle=orthogonalEdgeStyle;rounded=0;orthogonalLoop=1;jettySize=auto;html=1;exitX=1;exitY=0.5;exitDx=0;exitDy=0;entryX=0;entryY=0.5;entryDx=0;entryDy=0;" edge="1" parent="1" source="DtHLHoiFknx3RHCEOVzX-7" target="DtHLHoiFknx3RHCEOVzX-15">
          <mxGeometry relative="1" as="geometry" />
        </mxCell>
        <mxCell id="DtHLHoiFknx3RHCEOVzX-18" style="edgeStyle=orthogonalEdgeStyle;rounded=0;orthogonalLoop=1;jettySize=auto;html=1;exitX=1;exitY=0.5;exitDx=0;exitDy=0;entryX=0;entryY=0.5;entryDx=0;entryDy=0;" edge="1" parent="1" source="DtHLHoiFknx3RHCEOVzX-7" target="DtHLHoiFknx3RHCEOVzX-16">
          <mxGeometry relative="1" as="geometry" />
        </mxCell>
        <mxCell id="DtHLHoiFknx3RHCEOVzX-7" value="&lt;font style=&quot;font-size: 12px&quot;&gt;实景场地漫游&lt;/font&gt;" style="rounded=0;whiteSpace=wrap;html=1;" vertex="1" parent="1">
          <mxGeometry x="230" y="450" width="170" height="40" as="geometry" />
        </mxCell>
        <mxCell id="DtHLHoiFknx3RHCEOVzX-24" style="edgeStyle=orthogonalEdgeStyle;rounded=0;orthogonalLoop=1;jettySize=auto;html=1;exitX=1;exitY=0.5;exitDx=0;exitDy=0;entryX=0;entryY=0.5;entryDx=0;entryDy=0;" edge="1" parent="1" source="DtHLHoiFknx3RHCEOVzX-12" target="DtHLHoiFknx3RHCEOVzX-7">
          <mxGeometry relative="1" as="geometry" />
        </mxCell>
        <mxCell id="DtHLHoiFknx3RHCEOVzX-25" style="edgeStyle=orthogonalEdgeStyle;rounded=0;orthogonalLoop=1;jettySize=auto;html=1;exitX=1;exitY=0.5;exitDx=0;exitDy=0;entryX=0;entryY=0.5;entryDx=0;entryDy=0;" edge="1" parent="1" source="DtHLHoiFknx3RHCEOVzX-12" target="DtHLHoiFknx3RHCEOVzX-21">
          <mxGeometry relative="1" as="geometry" />
        </mxCell>
        <mxCell id="DtHLHoiFknx3RHCEOVzX-12" value="站内实景演练" style="rounded=0;whiteSpace=wrap;html=1;" vertex="1" parent="1">
          <mxGeometry x="50" y="480" width="120" height="60" as="geometry" />
        </mxCell>
        <mxCell id="DtHLHoiFknx3RHCEOVzX-15" value="&lt;font style=&quot;font-size: 12px&quot;&gt;学习&lt;/font&gt;" style="rounded=0;whiteSpace=wrap;html=1;" vertex="1" parent="1">
          <mxGeometry x="440" y="430" width="70" height="30" as="geometry" />
        </mxCell>
        <mxCell id="DtHLHoiFknx3RHCEOVzX-16" value="&lt;font style=&quot;font-size: 12px&quot;&gt;考核&lt;/font&gt;" style="rounded=0;whiteSpace=wrap;html=1;" vertex="1" parent="1">
          <mxGeometry x="440" y="480" width="70" height="30" as="geometry" />
        </mxCell>
        <mxCell id="DtHLHoiFknx3RHCEOVzX-19" style="edgeStyle=orthogonalEdgeStyle;rounded=0;orthogonalLoop=1;jettySize=auto;html=1;exitX=1;exitY=0.5;exitDx=0;exitDy=0;entryX=0;entryY=0.5;entryDx=0;entryDy=0;" edge="1" source="DtHLHoiFknx3RHCEOVzX-21" target="DtHLHoiFknx3RHCEOVzX-22" parent="1">
          <mxGeometry relative="1" as="geometry" />
        </mxCell>
        <mxCell id="DtHLHoiFknx3RHCEOVzX-20" style="edgeStyle=orthogonalEdgeStyle;rounded=0;orthogonalLoop=1;jettySize=auto;html=1;exitX=1;exitY=0.5;exitDx=0;exitDy=0;entryX=0;entryY=0.5;entryDx=0;entryDy=0;" edge="1" source="DtHLHoiFknx3RHCEOVzX-21" target="DtHLHoiFknx3RHCEOVzX-23" parent="1">
          <mxGeometry relative="1" as="geometry" />
        </mxCell>
        <mxCell id="DtHLHoiFknx3RHCEOVzX-21" value="&lt;font style=&quot;font-size: 12px&quot;&gt;设备介绍及学习&lt;/font&gt;" style="rounded=0;whiteSpace=wrap;html=1;" vertex="1" parent="1">
          <mxGeometry x="230" y="540" width="170" height="40" as="geometry" />
        </mxCell>
        <mxCell id="DtHLHoiFknx3RHCEOVzX-22" value="&lt;font style=&quot;font-size: 12px&quot;&gt;学习&lt;/font&gt;" style="rounded=0;whiteSpace=wrap;html=1;" vertex="1" parent="1">
          <mxGeometry x="440" y="520" width="70" height="30" as="geometry" />
        </mxCell>
        <mxCell id="DtHLHoiFknx3RHCEOVzX-23" value="&lt;font style=&quot;font-size: 12px&quot;&gt;考核&lt;/font&gt;" style="rounded=0;whiteSpace=wrap;html=1;" vertex="1" parent="1">
          <mxGeometry x="440" y="570" width="70" height="30" as="geometry" />
        </mxCell>
        <mxCell id="DtHLHoiFknx3RHCEOVzX-27" style="edgeStyle=orthogonalEdgeStyle;rounded=0;orthogonalLoop=1;jettySize=auto;html=1;exitX=1;exitY=0.5;exitDx=0;exitDy=0;entryX=0;entryY=0.5;entryDx=0;entryDy=0;" edge="1" parent="1" source="DtHLHoiFknx3RHCEOVzX-29" target="DtHLHoiFknx3RHCEOVzX-33">
          <mxGeometry relative="1" as="geometry" />
        </mxCell>
        <mxCell id="DtHLHoiFknx3RHCEOVzX-28" style="edgeStyle=orthogonalEdgeStyle;rounded=0;orthogonalLoop=1;jettySize=auto;html=1;exitX=1;exitY=0.5;exitDx=0;exitDy=0;entryX=0;entryY=0.5;entryDx=0;entryDy=0;" edge="1" parent="1" source="DtHLHoiFknx3RHCEOVzX-29" target="DtHLHoiFknx3RHCEOVzX-34">
          <mxGeometry relative="1" as="geometry" />
        </mxCell>
        <mxCell id="DtHLHoiFknx3RHCEOVzX-29" value="&lt;font style=&quot;font-size: 12px&quot;&gt;现场操作规范&lt;/font&gt;" style="rounded=0;whiteSpace=wrap;html=1;" vertex="1" parent="1">
          <mxGeometry x="230" y="650" width="170" height="40" as="geometry" />
        </mxCell>
        <mxCell id="DtHLHoiFknx3RHCEOVzX-30" style="edgeStyle=orthogonalEdgeStyle;rounded=0;orthogonalLoop=1;jettySize=auto;html=1;exitX=1;exitY=0.5;exitDx=0;exitDy=0;entryX=0;entryY=0.5;entryDx=0;entryDy=0;" edge="1" parent="1" source="DtHLHoiFknx3RHCEOVzX-32" target="DtHLHoiFknx3RHCEOVzX-29">
          <mxGeometry relative="1" as="geometry" />
        </mxCell>
        <mxCell id="DtHLHoiFknx3RHCEOVzX-31" style="edgeStyle=orthogonalEdgeStyle;rounded=0;orthogonalLoop=1;jettySize=auto;html=1;exitX=1;exitY=0.5;exitDx=0;exitDy=0;entryX=0;entryY=0.5;entryDx=0;entryDy=0;" edge="1" parent="1" source="DtHLHoiFknx3RHCEOVzX-32" target="DtHLHoiFknx3RHCEOVzX-37">
          <mxGeometry relative="1" as="geometry" />
        </mxCell>
        <mxCell id="DtHLHoiFknx3RHCEOVzX-32" value="现场实景演练" style="rounded=0;whiteSpace=wrap;html=1;" vertex="1" parent="1">
          <mxGeometry x="50" y="680" width="120" height="60" as="geometry" />
        </mxCell>
        <mxCell id="DtHLHoiFknx3RHCEOVzX-33" value="&lt;font style=&quot;font-size: 12px&quot;&gt;学习&lt;/font&gt;" style="rounded=0;whiteSpace=wrap;html=1;" vertex="1" parent="1">
          <mxGeometry x="440" y="630" width="70" height="30" as="geometry" />
        </mxCell>
        <mxCell id="DtHLHoiFknx3RHCEOVzX-34" value="&lt;font style=&quot;font-size: 12px&quot;&gt;考核&lt;/font&gt;" style="rounded=0;whiteSpace=wrap;html=1;" vertex="1" parent="1">
          <mxGeometry x="440" y="680" width="70" height="30" as="geometry" />
        </mxCell>
        <mxCell id="DtHLHoiFknx3RHCEOVzX-35" style="edgeStyle=orthogonalEdgeStyle;rounded=0;orthogonalLoop=1;jettySize=auto;html=1;exitX=1;exitY=0.5;exitDx=0;exitDy=0;entryX=0;entryY=0.5;entryDx=0;entryDy=0;" edge="1" parent="1" source="DtHLHoiFknx3RHCEOVzX-37" target="DtHLHoiFknx3RHCEOVzX-38">
          <mxGeometry relative="1" as="geometry" />
        </mxCell>
        <mxCell id="DtHLHoiFknx3RHCEOVzX-36" style="edgeStyle=orthogonalEdgeStyle;rounded=0;orthogonalLoop=1;jettySize=auto;html=1;exitX=1;exitY=0.5;exitDx=0;exitDy=0;entryX=0;entryY=0.5;entryDx=0;entryDy=0;" edge="1" parent="1" source="DtHLHoiFknx3RHCEOVzX-37" target="DtHLHoiFknx3RHCEOVzX-39">
          <mxGeometry relative="1" as="geometry" />
        </mxCell>
        <mxCell id="DtHLHoiFknx3RHCEOVzX-37" value="&lt;font face=&quot;宋体&quot;&gt;安全防护用品及日常工具&lt;/font&gt;" style="rounded=0;whiteSpace=wrap;html=1;" vertex="1" parent="1">
          <mxGeometry x="230" y="740" width="170" height="40" as="geometry" />
        </mxCell>
        <mxCell id="DtHLHoiFknx3RHCEOVzX-38" value="&lt;font style=&quot;font-size: 12px&quot;&gt;学习&lt;/font&gt;" style="rounded=0;whiteSpace=wrap;html=1;" vertex="1" parent="1">
          <mxGeometry x="440" y="720" width="70" height="30" as="geometry" />
        </mxCell>
        <mxCell id="DtHLHoiFknx3RHCEOVzX-39" value="&lt;font style=&quot;font-size: 12px&quot;&gt;考核&lt;/font&gt;" style="rounded=0;whiteSpace=wrap;html=1;" vertex="1" parent="1">
          <mxGeometry x="440" y="770" width="70" height="30" as="geometry" />
        </mxCell>
      </root>
    </mxGraphModel>
  </diagram>
</mxfile>
